<svg width="18" height="15" viewBox="0 0 18 15" fill="none" xmlns="http://www.w3.org/2000/svg">
<path d="M2.25 1C2.25 0.801088 2.32902 0.610324 2.46967 0.469672C2.61032 0.32902 2.80109 0.250002 3 0.25H15C15.1989 0.25 15.3897 0.329018 15.5303 0.46967C15.671 0.610322 15.75 0.801088 15.75 1C15.75 1.19891 15.671 1.38968 15.5303 1.53033C15.3897 1.67098 15.1989 1.75 15 1.75H3C2.80109 1.75 2.61032 1.67098 2.46967 1.53033C2.32902 1.38968 2.25 1.19891 2.25 1ZM17.25 10.75C17.0511 10.75 16.8603 10.829 16.7197 10.9697C16.579 11.1103 16.5 11.3011 16.5 11.5V13H13.5C13.1023 12.9995 12.721 12.8414 12.4398 12.5602C12.1586 12.279 12.0005 11.8977 12 11.5V7H16.5C16.6989 7 16.8897 6.92098 17.0303 6.78033C17.171 6.63968 17.25 6.44891 17.25 6.25C17.25 6.05109 17.171 5.86032 17.0303 5.71967C16.8897 5.57902 16.6989 5.5 16.5 5.5H1.5C1.30109 5.5 1.11032 5.57902 0.96967 5.71967C0.829018 5.86032 0.75 6.05109 0.75 6.25C0.75 6.44891 0.829018 6.63968 0.96967 6.78033C1.11032 6.92098 1.30109 7 1.5 7H6V7.75C5.99844 9.14191 5.44481 10.4764 4.46059 11.4606C3.47636 12.4448 2.14191 12.9984 0.75 13C0.551088 13 0.360322 13.079 0.21967 13.2197C0.0790178 13.3603 0 13.5511 0 13.75C0 13.9489 0.0790178 14.1397 0.21967 14.2803C0.360322 14.421 0.551088 14.5 0.75 14.5C2.53959 14.498 4.25531 13.7862 5.52074 12.5207C6.78618 11.2553 7.49798 9.53959 7.5 7.75V7H10.5V11.5C10.5009 12.2954 10.8173 13.0579 11.3797 13.6203C11.9421 14.1827 12.7046 14.4991 13.5 14.5H17.25C17.4489 14.5 17.6397 14.421 17.7803 14.2803C17.921 14.1397 18 13.9489 18 13.75V11.5C18 11.3011 17.921 11.1103 17.7803 10.9697C17.6397 10.829 17.4489 10.75 17.25 10.75Z" fill="white"/>
</svg>
