<svg width="22" height="24" viewBox="0 0 22 24" fill="none" xmlns="http://www.w3.org/2000/svg">
<path d="M20.782 15.7472H17.2912C16.5072 15.7472 16.436 16.0725 16.3303 16.7688C16.0447 18.4464 14.4428 19.4725 12.5194 19.4725C10.3111 19.4725 8.53386 17.735 8.39073 15.7418H13.3267C13.9324 15.7418 14.3596 15.5327 14.3596 14.7284V13.7285C14.3596 12.9265 13.9324 12.7406 13.3267 12.7406H8.35555V11.2504H13.3267C13.9324 11.2504 14.3596 11.042 14.3596 10.237V9.23707C14.3596 8.43427 13.9324 8.22364 13.3267 8.22364H8.42674C8.67634 6.40668 10.3944 4.49222 12.4962 4.49222C14.4197 4.49222 15.5103 5.25004 16.2599 6.4029C16.5447 6.82267 16.5807 7.4853 17.3288 7.4853H20.7716C21.5909 7.4853 21.8764 7.19296 21.8764 6.35571C21.4132 1.91964 17.0094 0 12.5913 0C8.38999 0 3.20062 2.84313 3.09342 8.2229H1.15651C0.516404 8.2229 0.123596 8.43205 0.123596 9.23633V10.2363C0.123596 11.0398 0.515664 11.2497 1.15651 11.2497H2.38878V12.7391H1.15651C0.516404 12.7391 0.123596 12.9483 0.123596 13.7526V14.7292C0.123596 15.5313 0.515664 15.7427 1.15651 15.7427H3.0912V15.8836C3.0912 21.3675 8.28131 24 12.5194 24C16.9374 24 21.8501 21.3473 21.8501 16.8393C21.8501 16.0012 21.5653 15.7472 20.782 15.7472Z" fill="white"/>
</svg>
