<svg width="16" height="24" viewBox="0 0 16 24" fill="none" xmlns="http://www.w3.org/2000/svg">
<path d="M9.09091 12.3636C12.4996 12.3636 15.2727 9.59047 15.2727 6.18182C15.2727 2.77316 12.4996 0 9.09091 0C9.0776 0 9.06436 0.000218182 9.0512 0.000727273H4.00145C4.00094 0.000727273 4.00051 0.000654545 4.00007 0.000654545C3.3976 0.000654545 2.90916 0.489091 2.90916 1.09156V1.09164V11.2727V14.5455H1.81818C1.21571 14.5455 0.727272 15.0339 0.727272 15.6364C0.727272 16.2388 1.21571 16.7273 1.81818 16.7273H2.90909V22.9091C2.90909 23.5116 3.39753 24 4 24C4.60247 24 5.09091 23.5116 5.09091 22.9091V16.7273H9.09091C9.69338 16.7273 10.1818 16.2388 10.1818 15.6364C10.1818 15.0339 9.69338 14.5455 9.09091 14.5455H5.09091V12.3636H9.09091ZM9.09091 2.18255C9.10269 2.18255 9.11447 2.18233 9.12611 2.18196C11.3156 2.20087 13.0909 3.98793 13.0909 6.18182C13.0909 8.38742 11.2965 10.1818 9.09091 10.1818H5.09091V2.18255H9.09091Z" fill="white"/>
</svg>
